<svg width="16" height="22" viewBox="0 0 16 22" fill="none" xmlns="http://www.w3.org/2000/svg">
<path d="M13.417 4.50002H11.2503V1.25002C11.2503 0.654187 10.7628 0.166687 10.167 0.166687H5.83366C5.23783 0.166687 4.75033 0.654187 4.75033 1.25002V4.50002H2.58366C1.39199 4.50002 0.416992 5.47502 0.416992 6.66669V18.5834C0.416992 19.775 1.39199 20.75 2.58366 20.75C2.58366 21.3459 3.07116 21.8334 3.66699 21.8334C4.26283 21.8334 4.75033 21.3459 4.75033 20.75H11.2503C11.2503 21.3459 11.7378 21.8334 12.3337 21.8334C12.9295 21.8334 13.417 21.3459 13.417 20.75C14.6087 20.75 15.5837 19.775 15.5837 18.5834V6.66669C15.5837 5.47502 14.6087 4.50002 13.417 4.50002ZM5.29199 17.5H3.66699V7.75002H5.29199V17.5ZM8.81283 17.5H7.18783V7.75002H8.81283V17.5ZM9.62533 4.50002H6.37533V1.79169H9.62533V4.50002ZM12.3337 17.5H10.7087V7.75002H12.3337V17.5Z" fill="#979797"/>
</svg>
