<svg width="22" height="21" viewBox="0 0 22 21" fill="none" xmlns="http://www.w3.org/2000/svg">
<path d="M19.9375 10.5H2.0625C1.51549 10.5 0.990886 10.7371 0.604092 11.159C0.217298 11.581 0 12.1533 0 12.75C0 13.3467 0.217298 13.919 0.604092 14.341C0.990886 14.7629 1.51549 15 2.0625 15H19.9375C20.4845 15 21.0091 14.7629 21.3959 14.341C21.7827 13.919 22 13.3467 22 12.75C22 12.1533 21.7827 11.581 21.3959 11.159C21.0091 10.7371 20.4845 10.5 19.9375 10.5ZM20.625 16.5H1.375C1.19266 16.5 1.0178 16.579 0.888864 16.7197C0.759933 16.8603 0.6875 17.0511 0.6875 17.25V18C0.6875 18.7956 0.977231 19.5587 1.49296 20.1213C2.00868 20.6839 2.70815 21 3.4375 21H18.5625C19.2918 21 19.9913 20.6839 20.507 20.1213C21.0228 19.5587 21.3125 18.7956 21.3125 18V17.25C21.3125 17.0511 21.2401 16.8603 21.1111 16.7197C20.9822 16.579 20.8073 16.5 20.625 16.5ZM2.51969 9H19.4803C20.9657 9 21.8273 6.94219 20.9765 5.44312C19.25 2.4 15.4494 0.0046875 11 0C6.55102 0.0046875 2.75 2.4 1.02352 5.44266C0.171875 6.94172 1.03426 9 2.51969 9ZM16.5 3.75C16.636 3.75 16.7689 3.79399 16.882 3.8764C16.995 3.95881 17.0831 4.07594 17.1352 4.21299C17.1872 4.35003 17.2008 4.50083 17.1743 4.64632C17.1478 4.7918 17.0823 4.92544 16.9861 5.03033C16.89 5.13522 16.7675 5.20665 16.6341 5.23559C16.5008 5.26453 16.3625 5.24968 16.2369 5.19291C16.1113 5.13614 16.0039 5.04001 15.9284 4.91668C15.8528 4.79334 15.8125 4.64834 15.8125 4.5C15.8125 4.30109 15.8849 4.11032 16.0139 3.96967C16.1428 3.82902 16.3177 3.75 16.5 3.75ZM11 2.25C11.136 2.25 11.2689 2.29399 11.382 2.3764C11.495 2.45881 11.5831 2.57594 11.6352 2.71299C11.6872 2.85003 11.7008 3.00083 11.6743 3.14632C11.6478 3.2918 11.5823 3.42544 11.4861 3.53033C11.39 3.63522 11.2675 3.70665 11.1341 3.73559C11.0008 3.76453 10.8625 3.74968 10.7369 3.69291C10.6113 3.63614 10.5039 3.54001 10.4284 3.41668C10.3528 3.29334 10.3125 3.14834 10.3125 3C10.3125 2.80109 10.3849 2.61032 10.5139 2.46967C10.6428 2.32902 10.8177 2.25 11 2.25ZM5.5 3.75C5.63597 3.75 5.7689 3.79399 5.88195 3.8764C5.99501 3.95881 6.08313 4.07594 6.13517 4.21299C6.1872 4.35003 6.20082 4.50083 6.17429 4.64632C6.14776 4.7918 6.08228 4.92544 5.98614 5.03033C5.88999 5.13522 5.76749 5.20665 5.63412 5.23559C5.50076 5.26453 5.36253 5.24968 5.23691 5.19291C5.11128 5.13614 5.00391 5.04001 4.92836 4.91668C4.85282 4.79334 4.8125 4.64834 4.8125 4.5C4.8125 4.30109 4.88493 4.11032 5.01386 3.96967C5.1428 3.82902 5.31766 3.75 5.5 3.75Z" fill="#979797"/>
</svg>
